0
SECTION
2
HEADER
9
$INSUNITS
70
4
9
$ACADVER
1
AC1014
9
$HANDSEED
5
FFFF
0
ENDSEC
0
SECTION
2
TABLES
0
TABLE
2
VPORT
5
8
100
AcDbSymbolTable
0
ENDTAB
0
TABLE
2
LTYPE
5
5
100
AcDbSymbolTable
0
LTYPE
5
14
100
AcDbSymbolTableRecord
100
AcDbLinetypeTableRecord
2
BYBLOCK
70
0
0
LTYPE
5
15
100
AcDbSymbolTableRecord
100
AcDbLinetypeTableRecord
2
BYLAYER
70
0
0
ENDTAB
0
TABLE
2
LAYER
5
2
100
AcDbSymbolTable
70
2
0
LAYER
5
50
100
AcDbSymbolTableRecord
100
AcDbLayerTableRecord
2
0
70
0
6
CONTINUOUS
0
ENDTAB
0
TABLE
2
STYLE
5
3
100
AcDbSymbolTable
70
1
0
STYLE
5
11
100
AcDbSymbolTableRecord
100
AcDbTextStyleTableRecord
2
STANDARD
70
0
0
ENDTAB
0
TABLE
2
VIEW
5
6
100
AcDbSymbolTable
70
0
0
ENDTAB
0
TABLE
2
UCS
5
7
100
AcDbSymbolTable
70
0
0
ENDTAB
0
TABLE
2
APPID
5
9
100
AcDbSymbolTable
70
2
0
APPID
5
12
100
AcDbSymbolTableRecord
100
AcDbRegAppTableRecord
2
ACAD
70
0
0
ENDTAB
0
TABLE
2
DIMSTYLE
5
A
100
AcDbSymbolTable
70
1
0
ENDTAB
0
TABLE
2
BLOCK_RECORD
5
1
100
AcDbSymbolTable
70
1
0
BLOCK_RECORD
5
1F
100
AcDbSymbolTableRecord
100
AcDbBlockTableRecord
2
*MODEL_SPACE
0
BLOCK_RECORD
5
1B
100
AcDbSymbolTableRecord
100
AcDbBlockTableRecord
2
*PAPER_SPACE
0
ENDTAB
0
ENDSEC
0
SECTION
2
BLOCKS
0
BLOCK
5
20
100
AcDbEntity
100
AcDbBlockBegin
2
*MODEL_SPACE
0
ENDBLK
5
21
100
AcDbEntity
100
AcDbBlockEnd
0
BLOCK
5
1C
100
AcDbEntity
100
AcDbBlockBegin
2
*PAPER_SPACE
0
ENDBLK
5
1D
100
AcDbEntity
100
AcDbBlockEnd
0
ENDSEC
0
SECTION
2
ENTITIES
0
LWPOLYLINE
5
100
100
AcDbEntity
8
0
100
AcDbPolyline
90
36
70
1
43
0.0
10
2.9999999999999321
20
15.999999972789192
10
2.999999999999905
20
-3.0000000272105916
10
-20.000000000000064
20
-3.0000000272105867
10
-20.000000000000068
20
-6.0000000272105458
10
-27.00000000000006
20
-6.0000000272105449
10
-27.000000000000068
20
-13.000000027210437
10
-36.000000000000057
20
-13.000000027210437
10
-36.000000000000057
20
-10.000000027210474
10
-30.000000000000057
20
-10.000000027210474
10
-30.000000000000071
20
-6.0000000272105449
10
-84.999999999999986
20
-6.0000000272105245
10
-85
20
-13.00000002721044
10
-93.999999999999972
20
-13.000000027210445
10
-93.999999999999943
20
-10.000000027210481
10
-87.999999999999972
20
-10.000000027210479
10
-87.999999999999986
20
-6.0000000272105245
10
-94.999999999999972
20
-6.0000000272105236
10
-94.999999999999972
20
-3.0000000272105618
10
-117.99999999999994
20
-3.0000000272105543
10
-117.99999999999989
20
15.999999972789194
10
-109.99999999999989
20
15.999999972789194
10
-109.99999999999989
20
12.999999972789229
10
-114.99999999999991
20
12.999999972789229
10
-114.99999999999993
20
-2.7210615982653511e-08
10
-91.999999999999957
20
-2.7210615982653508e-08
10
-91.999999999999957
20
-3.0000000272105645
10
-88.999999999999943
20
-3.0000000272105649
10
-88.999999999999929
20
-2.7210615982653511e-08
10
-26.000000000000046
20
-2.7210615982653508e-08
10
-26.00000000000005
20
-3.0000000272105831
10
-23.000000000000057
20
-3.0000000272105836
10
-23.00000000000005
20
-2.7210615982653511e-08
10
-8.8454188702900116e-14
20
-2.7210615982653508e-08
10
-6.8833827526759706e-14
20
12.999999972789229
10
-5.0000000000000613
20
12.999999972789229
10
-5.0000000000000577
20
15.999999972789194
0
ENDSEC
0
SECTION
2
OBJECTS
0
DICTIONARY
5
C
100
AcDbDictionary
3
ACAD_GROUP
350
D
3
ACAD_MLINESTYLE
350
17
0
DICTIONARY
5
D
100
AcDbDictionary
0
DICTIONARY
5
1A
330
C
100
AcDbDictionary
0
DICTIONARY
5
17
100
AcDbDictionary
0
ENDSEC
0
EOF
