0
SECTION
2
HEADER
9
$INSUNITS
70
4
9
$ACADVER
1
AC1014
9
$HANDSEED
5
FFFF
0
ENDSEC
0
SECTION
2
TABLES
0
TABLE
2
VPORT
5
8
100
AcDbSymbolTable
0
ENDTAB
0
TABLE
2
LTYPE
5
5
100
AcDbSymbolTable
70
2
0
LTYPE
5
14
100
AcDbSymbolTableRecord
100
AcDbLinetypeTableRecord
2
BYBLOCK
70
0
0
LTYPE
5
15
100
AcDbSymbolTableRecord
100
AcDbLinetypeTableRecord
2
BYLAYER
70
0
0
ENDTAB
0
TABLE
2
LAYER
5
2
100
AcDbSymbolTable
70
3
0
LAYER
5
50
100
AcDbSymbolTableRecord
100
AcDbLayerTableRecord
2
0
70
0
6
CONTINUOUS
0
LAYER
5
51
100
AcDbSymbolTableRecord
100
AcDbLayerTableRecord
2
CUTOUTS
70
0
62
1
6
CONTINUOUS
0
LAYER
5
52
100
AcDbSymbolTableRecord
100
AcDbLayerTableRecord
2
PERIMETER
70
0
62
5
6
CONTINUOUS
0
ENDTAB
0
TABLE
2
STYLE
5
3
100
AcDbSymbolTable
70
1
0
STYLE
5
11
100
AcDbSymbolTableRecord
100
AcDbTextStyleTableRecord
2
STANDARD
70
0
0
ENDTAB
0
TABLE
2
VIEW
5
6
100
AcDbSymbolTable
0
ENDTAB
0
TABLE
2
UCS
5
7
100
AcDbSymbolTable
0
ENDTAB
0
TABLE
2
APPID
5
9
100
AcDbSymbolTable
70
1
0
APPID
5
12
100
AcDbSymbolTableRecord
100
AcDbRegAppTableRecord
2
ACAD
70
0
0
ENDTAB
0
TABLE
2
DIMSTYLE
5
A
100
AcDbSymbolTable
0
ENDTAB
0
TABLE
2
BLOCK_RECORD
5
1
100
AcDbSymbolTable
70
2
0
BLOCK_RECORD
5
1F
100
AcDbSymbolTableRecord
100
AcDbBlockTableRecord
2
*MODEL_SPACE
0
BLOCK_RECORD
5
1B
100
AcDbSymbolTableRecord
100
AcDbBlockTableRecord
2
*PAPER_SPACE
0
ENDTAB
0
ENDSEC
0
SECTION
2
BLOCKS
0
BLOCK
5
20
100
AcDbEntity
100
AcDbBlockBegin
2
*MODEL_SPACE
0
ENDBLK
5
21
100
AcDbEntity
100
AcDbBlockEnd
0
BLOCK
5
1C
100
AcDbEntity
100
AcDbBlockBegin
2
*PAPER_SPACE
0
ENDBLK
5
1D
100
AcDbEntity
100
AcDbBlockEnd
0
ENDSEC
0
SECTION
2
ENTITIES
0
LINE
5
100
100
AcDbEntity
8
PERIMETER
100
AcDbLine
10
-60.574999999999875
20
14.074999999999822
30
-8.8817841970012523e-15
11
-60.574999999999875
21
-5.0749999999999158
31
-8.8817841970012539e-15
0
LINE
5
101
100
AcDbEntity
8
PERIMETER
100
AcDbLine
10
-60.574999999999875
20
-5.0749999999999176
30
-8.8817841970012523e-15
11
-37.574999999999925
21
-5.0749999999999229
31
-8.8817841970012523e-15
0
LINE
5
102
100
AcDbEntity
8
PERIMETER
100
AcDbLine
10
-37.574999999999925
20
-5.0749999999999229
30
-8.8817841970012523e-15
11
-37.574999999999903
21
-8.074999999999882
31
-8.8817841970012507e-15
0
LINE
5
103
100
AcDbEntity
8
PERIMETER
100
AcDbLine
10
-37.574999999999925
20
-8.074999999999882
30
-8.8817841970012523e-15
11
-30.574999999999946
21
-8.0749999999998838
31
-8.8817841970012523e-15
0
LINE
5
104
100
AcDbEntity
8
PERIMETER
100
AcDbLine
10
-30.574999999999946
20
-8.0749999999998838
30
-8.8817841970012523e-15
11
-30.574999999999946
21
-10.924999999999848
31
-8.8817841970012523e-15
0
LINE
5
105
100
AcDbEntity
8
PERIMETER
100
AcDbLine
10
-30.574999999999932
20
-10.924999999999848
30
-8.8817841970012523e-15
11
-36.57499999999991
21
-10.924999999999848
31
-8.8817841970012523e-15
0
LINE
5
106
100
AcDbEntity
8
PERIMETER
100
AcDbLine
10
-36.57499999999991
20
-10.924999999999848
30
0
11
-36.57499999999991
21
-14.074999999999811
31
8.712759065472107e-31
0
LINE
5
107
100
AcDbEntity
8
PERIMETER
100
AcDbLine
10
-36.57499999999991
20
-14.074999999999811
30
-8.8817841970012523e-15
11
-27.424999999999919
21
-14.074999999999807
31
-8.8817841970012523e-15
0
LINE
5
108
100
AcDbEntity
8
PERIMETER
100
AcDbLine
10
-27.424999999999919
20
-14.074999999999807
30
-8.8817841970012523e-15
11
-27.424999999999919
21
-8.0749999999998838
31
-8.8817841970012523e-15
0
LINE
5
109
100
AcDbEntity
8
PERIMETER
100
AcDbLine
10
-27.424999999999933
20
-8.0749999999998838
30
-8.8817841970012523e-15
11
27.424999999999955
21
-8.0749999999999051
31
-8.8817841970012523e-15
0
LINE
5
10A
100
AcDbEntity
8
PERIMETER
100
AcDbLine
10
27.424999999999965
20
-8.0749999999999051
30
0
11
27.424999999999962
21
-10.92499999999986
31
4.4556264306959948e-31
0
LINE
5
10B
100
AcDbEntity
8
PERIMETER
100
AcDbLine
10
27.424999999999962
20
-10.92499999999986
30
0
11
21.424999999999969
21
-10.92499999999986
31
0
0
LINE
5
10C
100
AcDbEntity
8
PERIMETER
100
AcDbLine
10
21.424999999999969
20
-10.92499999999986
30
-8.8817841970012523e-15
11
21.424999999999965
21
-14.074999999999822
31
-8.8817841970012507e-15
0
LINE
5
10D
100
AcDbEntity
8
PERIMETER
100
AcDbLine
10
21.424999999999965
20
-14.07499999999982
30
-8.8817841970012523e-15
11
30.574999999999946
21
-14.07499999999982
31
-8.8817841970012523e-15
0
LINE
5
10E
100
AcDbEntity
8
PERIMETER
100
AcDbLine
10
30.574999999999946
20
-14.07499999999982
30
-8.8817841970012523e-15
11
30.574999999999946
21
-8.0749999999999034
31
-8.8817841970012523e-15
0
LINE
5
10F
100
AcDbEntity
8
PERIMETER
100
AcDbLine
10
30.574999999999946
20
-8.0749999999999051
30
-8.8817841970012523e-15
11
37.574999999999939
21
-8.0749999999999051
31
-8.8817841970012523e-15
0
LINE
5
110
100
AcDbEntity
8
PERIMETER
100
AcDbLine
10
37.574999999999939
20
-8.0749999999999051
30
-8.8817841970012523e-15
11
37.574999999999939
21
-5.0749999999999478
31
-8.8817841970012523e-15
0
LINE
5
111
100
AcDbEntity
8
PERIMETER
100
AcDbLine
10
37.574999999999939
20
-5.0749999999999478
30
-8.8817841970012523e-15
11
60.574999999999896
21
-5.0749999999999513
31
-8.8817841970012523e-15
0
LINE
5
112
100
AcDbEntity
8
PERIMETER
100
AcDbLine
10
60.574999999999896
20
-5.0749999999999531
30
-8.8817841970012523e-15
11
60.574999999999896
21
14.07499999999982
31
-8.881784197001246e-15
0
LINE
5
113
100
AcDbEntity
8
PERIMETER
100
AcDbLine
10
60.574999999999896
20
14.074999999999822
30
-8.8817841970012523e-15
11
52.424999999999912
21
14.074999999999822
31
-8.8817841970012523e-15
0
LINE
5
114
100
AcDbEntity
8
PERIMETER
100
AcDbLine
10
52.424999999999912
20
14.074999999999822
30
-8.8817841970012523e-15
11
52.424999999999912
21
10.924999999999859
31
-8.8817841970012539e-15
0
LINE
5
115
100
AcDbEntity
8
PERIMETER
100
AcDbLine
10
52.424999999999912
20
10.924999999999859
30
-8.8817841970012523e-15
11
57.424999999999898
21
10.924999999999859
31
-8.8817841970012523e-15
0
LINE
5
116
100
AcDbEntity
8
PERIMETER
100
AcDbLine
10
57.424999999999898
20
10.924999999999859
30
-8.8817841970012523e-15
11
57.424999999999898
21
-1.9249999999999767
31
-8.8817841970012476e-15
0
LINE
5
117
100
AcDbEntity
8
PERIMETER
100
AcDbLine
10
57.424999999999898
20
-1.9249999999999781
30
-8.8817841970012523e-15
11
34.424999999999947
21
-1.9249999999999787
31
-8.8817841970012523e-15
0
LINE
5
118
100
AcDbEntity
8
PERIMETER
100
AcDbLine
10
34.424999999999947
20
-1.9249999999999787
30
-8.8817841970012523e-15
11
34.424999999999947
21
-4.9249999999999448
31
-8.8817841970012523e-15
0
LINE
5
119
100
AcDbEntity
8
PERIMETER
100
AcDbLine
10
34.424999999999947
20
-4.9249999999999448
30
-8.8817841970012523e-15
11
31.57499999999995
21
-4.9249999999999448
31
-8.8817841970012523e-15
0
LINE
5
11A
100
AcDbEntity
8
PERIMETER
100
AcDbLine
10
31.57499999999995
20
-4.9249999999999439
30
0
11
31.574999999999953
21
-1.9249999999999785
31
-1.0505240471107149e-30
0
LINE
5
11B
100
AcDbEntity
8
PERIMETER
100
AcDbLine
10
31.574999999999953
20
-1.9249999999999787
30
0
11
-31.574999999999918
21
-1.9249999999999787
31
0
0
LINE
5
11C
100
AcDbEntity
8
PERIMETER
100
AcDbLine
10
-31.57499999999991
20
-1.9249999999999787
30
0
11
-31.57499999999991
21
-4.9249999999999261
31
2.6631450250606546e-31
0
LINE
5
11D
100
AcDbEntity
8
PERIMETER
100
AcDbLine
10
-31.57499999999991
20
-4.9249999999999261
30
0
11
-34.424999999999912
21
-4.9249999999999252
31
0
0
LINE
5
11E
100
AcDbEntity
8
PERIMETER
100
AcDbLine
10
-34.424999999999912
20
-4.9249999999999252
30
-8.8817841970012523e-15
11
-34.424999999999912
21
-1.9249999999999785
31
-8.8817841970012523e-15
0
LINE
5
11F
100
AcDbEntity
8
PERIMETER
100
AcDbLine
10
-34.424999999999912
20
-1.9249999999999787
30
-8.8817841970012523e-15
11
-57.424999999999883
21
-1.9249999999999787
31
-8.8817841970012523e-15
0
LINE
5
120
100
AcDbEntity
8
PERIMETER
100
AcDbLine
10
-57.424999999999883
20
-1.9249999999999787
30
-8.8817841970012523e-15
11
-57.424999999999862
21
10.924999999999855
31
-8.8817841970012602e-15
0
LINE
5
121
100
AcDbEntity
8
PERIMETER
100
AcDbLine
10
-57.424999999999862
20
10.924999999999859
30
-8.8817841970012523e-15
11
-52.424999999999883
21
10.924999999999859
31
-8.8817841970012523e-15
0
LINE
5
122
100
AcDbEntity
8
PERIMETER
100
AcDbLine
10
-52.424999999999883
20
10.924999999999859
30
-8.8817841970012523e-15
11
-52.424999999999883
21
14.074999999999822
31
-8.8817841970012523e-15
0
LINE
5
123
100
AcDbEntity
8
PERIMETER
100
AcDbLine
10
-52.424999999999883
20
14.074999999999822
30
-8.8817841970012523e-15
11
-60.574999999999875
21
14.074999999999822
31
-8.8817841970012523e-15
0
ENDSEC
0
SECTION
2
OBJECTS
0
DICTIONARY
5
C
100
AcDbDictionary
3
ACAD_GROUP
350
D
3
ACAD_MLINESTYLE
350
17
0
DICTIONARY
5
D
100
AcDbDictionary
0
DICTIONARY
5
1A
330
C
100
AcDbDictionary
0
DICTIONARY
5
17
100
AcDbDictionary
0
ENDSEC
0
EOF
